<svg width="21" height="20" viewBox="0 0 21 20" fill="none" xmlns="http://www.w3.org/2000/svg">
<path fill-rule="evenodd" clip-rule="evenodd" d="M0.499878 10.0001C0.499878 4.48011 4.96988 0.000106812 10.4999 0.000106812C16.0199 0.000106812 20.4999 4.48011 20.4999 10.0001C20.4999 15.5301 16.0199 20.0001 10.4999 20.0001C4.96988 20.0001 0.499878 15.5301 0.499878 10.0001ZM12.7299 11.8301L14.3499 6.71011C14.4599 6.36011 14.1399 6.03011 13.7899 6.14011L8.66988 7.74011C8.45988 7.81011 8.28988 7.97011 8.22988 8.18011L6.62988 13.3101C6.51988 13.6501 6.84988 13.9801 7.18988 13.8701L12.2899 12.2701C12.4999 12.2101 12.6699 12.0401 12.7299 11.8301Z" fill="#200E32"/>
</svg>
