<svg width="24" height="24" viewBox="0 0 24 24" fill="none" xmlns="http://www.w3.org/2000/svg">
<path fill-rule="evenodd" clip-rule="evenodd" d="M9.18997 6.92959C9.18997 8.60959 7.80497 9.97128 6.09498 9.97128C4.38599 9.97128 3 8.60959 3 6.92959C3 5.25057 4.38599 3.88889 6.09498 3.88889C7.80497 3.88889 9.18997 5.25057 9.18997 6.92959ZM19.6441 5.59739C20.3921 5.59739 21.0001 6.19472 21.0001 6.9296C21.0001 7.66546 20.3921 8.26279 19.6441 8.26279H13.7261C12.9771 8.26279 12.3691 7.66546 12.3691 6.9296C12.3691 6.19472 12.9771 5.59739 13.7261 5.59739H19.6441ZM4.35699 15.551H10.275C11.024 15.551 11.632 16.1484 11.632 16.8842C11.632 17.6191 11.024 18.2174 10.275 18.2174H4.35699C3.608 18.2174 3 17.6191 3 16.8842C3 16.1484 3.608 15.551 4.35699 15.551ZM17.9051 19.8889C19.6151 19.8889 21 18.5272 21 16.8482C21 15.1682 19.6151 13.8065 17.9051 13.8065C16.1961 13.8065 14.8101 15.1682 14.8101 16.8482C14.8101 18.5272 16.1961 19.8889 17.9051 19.8889Z" fill="#EDA47E"/>
</svg>
