<svg width="17" height="17" viewBox="0 0 17 17" fill="none" xmlns="http://www.w3.org/2000/svg">
<path fill-rule="evenodd" clip-rule="evenodd" d="M2.47919 7.30841C2.47919 4.05017 5.20194 1.41667 8.49538 1.41667C11.7981 1.41667 14.5209 4.05017 14.5209 7.30841C14.5209 8.95028 13.9237 10.4746 12.9409 11.7665C11.8567 13.1917 10.5203 14.4333 9.01607 15.408C8.6718 15.6332 8.3611 15.6502 7.98326 15.408C6.47046 14.4333 5.13408 13.1917 4.05912 11.7665C3.07559 10.4746 2.47919 8.95028 2.47919 7.30841ZM6.5126 7.49187C6.5126 8.58338 7.40328 9.44185 8.49538 9.44185C9.58819 9.44185 10.4874 8.58338 10.4874 7.49187C10.4874 6.40885 9.58819 5.50859 8.49538 5.50859C7.40328 5.50859 6.5126 6.40885 6.5126 7.49187Z" fill="#132D2F" fill-opacity="0.6"/>
</svg>
