<svg width="18" height="18" viewBox="0 0 18 18" fill="none" xmlns="http://www.w3.org/2000/svg">
<path fill-rule="evenodd" clip-rule="evenodd" d="M3.01055 7.87171C3.01055 5.18695 5.18698 3.01052 7.87174 3.01052C10.5565 3.01052 12.7329 5.18695 12.7329 7.87171C12.7329 10.5565 10.5565 12.7329 7.87174 12.7329C5.18698 12.7329 3.01055 10.5565 3.01055 7.87171ZM7.87174 0.989471C4.07078 0.989471 0.989502 4.07075 0.989502 7.87171C0.989502 11.6727 4.07078 14.7539 7.87174 14.7539C9.4077 14.7539 10.8261 14.2508 11.9712 13.4003L15.2854 16.7145C15.6801 17.1092 16.3199 17.1092 16.7145 16.7145C17.1092 16.3199 17.1092 15.6801 16.7145 15.2854L13.4003 11.9712C14.2508 10.8261 14.754 9.40767 14.754 7.87171C14.754 4.07075 11.6727 0.989471 7.87174 0.989471Z" fill="#EDA47E"/>
</svg>
