<svg width="48" height="44" viewBox="0 0 48 44" fill="none" xmlns="http://www.w3.org/2000/svg">
<g filter="url(#filter0_d)">
<path fill-rule="evenodd" clip-rule="evenodd" d="M20.748 18C20.748 19.7778 22.2033 21.2243 24 21.2243C25.7886 21.2243 27.2439 19.7778 27.2439 18C27.2439 16.2142 25.7886 14.7677 24 14.7677C22.2033 14.7677 20.748 16.2142 20.748 18ZM28.7805 13.0384C30.2033 14.1374 31.4147 15.7455 32.2846 17.7576C32.3496 17.9111 32.3496 18.0889 32.2846 18.2344C30.5447 22.2586 27.4472 24.6667 24 24.6667H23.9919C20.5529 24.6667 17.4553 22.2586 15.7155 18.2344C15.6504 18.0889 15.6504 17.9111 15.7155 17.7576C17.4553 13.7333 20.5529 11.3333 23.9919 11.3333H24C25.7236 11.3333 27.3577 11.9313 28.7805 13.0384ZM24.001 20.0104C25.1148 20.0104 26.0254 19.1053 26.0254 17.9982C26.0254 16.8831 25.1148 15.978 24.001 15.978C23.9034 15.978 23.8059 15.9861 23.7164 16.0023C23.6839 16.8912 22.9522 17.6023 22.0498 17.6023H22.0091C21.9847 17.7316 21.9685 17.8609 21.9685 17.9982C21.9685 19.1053 22.879 20.0104 24.001 20.0104Z" fill="white"/>
<path fill-rule="evenodd" clip-rule="evenodd" d="M20.748 18C20.748 19.7778 22.2033 21.2243 24 21.2243C25.7886 21.2243 27.2439 19.7778 27.2439 18C27.2439 16.2142 25.7886 14.7677 24 14.7677C22.2033 14.7677 20.748 16.2142 20.748 18ZM28.7805 13.0384C30.2033 14.1374 31.4147 15.7455 32.2846 17.7576C32.3496 17.9111 32.3496 18.0889 32.2846 18.2344C30.5447 22.2586 27.4472 24.6667 24 24.6667H23.9919C20.5529 24.6667 17.4553 22.2586 15.7155 18.2344C15.6504 18.0889 15.6504 17.9111 15.7155 17.7576C17.4553 13.7333 20.5529 11.3333 23.9919 11.3333H24C25.7236 11.3333 27.3577 11.9313 28.7805 13.0384ZM24.001 20.0104C25.1148 20.0104 26.0254 19.1053 26.0254 17.9982C26.0254 16.8831 25.1148 15.978 24.001 15.978C23.9034 15.978 23.8059 15.9861 23.7164 16.0023C23.6839 16.8912 22.9522 17.6023 22.0498 17.6023H22.0091C21.9847 17.7316 21.9685 17.8609 21.9685 17.9982C21.9685 19.1053 22.879 20.0104 24.001 20.0104Z" fill="#FB8D27"/>
</g>
<defs>
<filter id="filter0_d" x="0.666687" y="0.333344" width="46.6667" height="43.3333" filterUnits="userSpaceOnUse" color-interpolation-filters="sRGB">
<feFlood flood-opacity="0" result="BackgroundImageFix"/>
<feColorMatrix in="SourceAlpha" type="matrix" values="0 0 0 0 0 0 0 0 0 0 0 0 0 0 0 0 0 0 127 0"/>
<feOffset dy="4"/>
<feGaussianBlur stdDeviation="7.5"/>
<feColorMatrix type="matrix" values="0 0 0 0 0.984314 0 0 0 0 0.552941 0 0 0 0 0.152941 0 0 0 0.55 0"/>
<feBlend mode="normal" in2="BackgroundImageFix" result="effect1_dropShadow"/>
<feBlend mode="normal" in="SourceGraphic" in2="effect1_dropShadow" result="shape"/>
</filter>
</defs>
</svg>
