<svg width="17" height="17" viewBox="0 0 17 17" fill="none" xmlns="http://www.w3.org/2000/svg">
<path fill-rule="evenodd" clip-rule="evenodd" d="M5.73575 8.5C5.73575 10.0111 6.97274 11.2406 8.49998 11.2406C10.0203 11.2406 11.2573 10.0111 11.2573 8.5C11.2573 6.98202 10.0203 5.75253 8.49998 5.75253C6.97274 5.75253 5.73575 6.98202 5.73575 8.5ZM12.5634 4.28263C13.7728 5.21677 14.8024 6.58364 15.5419 8.29394C15.5971 8.42444 15.5971 8.57556 15.5419 8.69919C14.063 12.1198 11.4301 14.1667 8.49999 14.1667H8.49308C5.56991 14.1667 2.93698 12.1198 1.45812 8.69919C1.40284 8.57556 1.40284 8.42444 1.45812 8.29394C2.93698 4.87333 5.56991 2.83333 8.49308 2.83333H8.49999C9.96503 2.83333 11.3541 3.34162 12.5634 4.28263ZM8.5008 10.2088C9.44755 10.2088 10.2215 9.4395 10.2215 8.49849C10.2215 7.55061 9.44755 6.78132 8.5008 6.78132C8.41788 6.78132 8.33495 6.78819 8.25893 6.80192C8.23129 7.55748 7.60934 8.16192 6.84227 8.16192H6.80771C6.78698 8.27182 6.77316 8.38172 6.77316 8.49849C6.77316 9.4395 7.54714 10.2088 8.5008 10.2088Z" fill="#132D2F" fill-opacity="0.6"/>
</svg>
