<svg width="25" height="24" viewBox="0 0 25 24" fill="none" xmlns="http://www.w3.org/2000/svg">
<g opacity="0.2">
<path d="M18.4185 14.3201C18.1595 14.5711 18.0405 14.9341 18.0995 15.2901L18.9885 20.2101C19.0635 20.6271 18.8875 21.0491 18.5385 21.2901C18.1965 21.5401 17.7415 21.5701 17.3685 21.3701L12.9395 19.0601C12.7855 18.9781 12.6145 18.9341 12.4395 18.9291H12.1685C12.0745 18.9431 11.9825 18.9731 11.8985 19.0191L7.46851 21.3401C7.24951 21.4501 7.00151 21.4891 6.75851 21.4501C6.16651 21.3381 5.77151 20.7741 5.86851 20.1791L6.75851 15.2591C6.81751 14.9001 6.69851 14.5351 6.43951 14.2801L2.82851 10.7801C2.52651 10.4871 2.42151 10.0471 2.55951 9.65011C2.69351 9.25411 3.03551 8.96511 3.44851 8.90011L8.41851 8.17911C8.79651 8.14011 9.12851 7.91011 9.29851 7.57011L11.4885 3.08011C11.5405 2.98011 11.6075 2.88811 11.6885 2.81011L11.7785 2.74011C11.8255 2.68811 11.8795 2.64511 11.9395 2.61011L12.0485 2.57011L12.2185 2.50011H12.6395C13.0155 2.53911 13.3465 2.76411 13.5195 3.10011L15.7385 7.57011C15.8985 7.89711 16.2095 8.12411 16.5685 8.17911L21.5385 8.90011C21.9585 8.96011 22.3095 9.25011 22.4485 9.65011C22.5795 10.0511 22.4665 10.4911 22.1585 10.7801L18.4185 14.3201Z" fill="#200E32"/>
</g>
</svg>
