<svg width="27" height="27" viewBox="0 0 27 27" fill="none" xmlns="http://www.w3.org/2000/svg">
<path d="M13.5923 0.0051941C13.9111 0.0498624 13.9932 0.110113 14.1354 0.221264C14.7845 0.730274 14.5342 2.07552 13.4584 2.07863C13.421 2.07863 13.3836 2.07967 13.3472 2.07967C10.3482 2.12226 7.41036 3.38128 5.31786 5.52432C1.96779 8.95754 1.08925 14.5556 3.41332 18.8967C5.07071 21.9903 8.20582 24.2455 11.6836 24.8002C16.2975 25.5357 21.2479 23.1818 23.5439 18.957C25.5253 15.3108 25.3186 10.5801 22.9509 7.09083C21.6165 5.12438 19.6715 3.60255 17.4128 2.77151L17.3214 2.73307C17.0379 2.57933 16.9819 2.49519 16.8863 2.34145C16.4491 1.62987 17.1709 0.465381 18.1896 0.842464C23.1586 2.68529 26.6717 7.4783 26.9781 12.7169C27.2221 16.8815 25.4152 21.1177 22.2095 23.83C18.7015 26.7978 13.6224 27.8055 9.20378 26.3241C4.61171 24.7836 0.997864 20.6253 0.178518 15.7752C-0.677174 10.7183 1.59186 5.24904 5.94301 2.30821C8.14974 0.816494 10.7968 0.00415519 13.4937 0C13.5259 0.00207759 13.5591 0.00311651 13.5923 0.0051941ZM19.4617 6.59636C19.686 6.62337 19.7452 6.65349 19.8574 6.7127C20.2831 6.93812 20.5126 7.48245 20.361 7.95095C20.3423 8.01016 20.334 8.02367 20.3101 8.07976L16.5104 16.0369C16.3484 16.3527 16.2549 16.4057 16.0202 16.5273L8.06563 20.3272C7.57963 20.5401 7.44359 20.4331 7.25875 20.3656C6.76444 20.1828 6.46328 19.5834 6.62944 19.0702C6.64813 19.0121 6.6554 18.9986 6.68032 18.9425L10.4801 10.9842C10.6421 10.6695 10.7345 10.6155 10.9692 10.495L18.9248 6.69401C19.093 6.62025 19.2737 6.58597 19.4617 6.59636ZM12.1966 12.2121L9.82167 17.1848L14.7938 14.8101L17.1677 9.83637C15.5114 10.6279 13.854 11.4195 12.1966 12.2121Z" fill="white"/>
</svg>
