<svg width="41" height="27" viewBox="0 0 41 27" fill="none" xmlns="http://www.w3.org/2000/svg">
<path d="M34.1019 10.4549C34.3467 11.3948 34.3114 12.4482 34.2376 13.5182C37.8334 15.7801 38.4508 17.1453 38.425 17.3691C38.4197 17.3772 37.737 18.1789 33.8001 17.8954C33.2938 17.8586 32.762 17.8057 32.2093 17.7371C32.6583 16.4033 32.9043 14.9803 32.9043 13.5004C32.9043 6.05587 26.7566 0 19.1998 0C13.4102 0 8.45072 3.55727 6.44662 8.56822C3.14197 6.43151 2.55526 5.14101 2.57986 4.92371C2.58519 4.91522 3.16083 4.05812 7.0932 4.34045C7.62005 3.38358 8.46384 2.61251 9.33511 2.00341C8.78242 1.93878 7.9784 1.90526 7.39496 1.86325C3.16247 1.5583 0.793463 2.27969 0.152214 4.06943C-0.532495 5.97994 1.08826 8.16269 5.10713 10.7441C5.30106 10.8685 5.51099 10.9929 5.71353 11.1177C5.5729 11.8916 5.49541 12.6869 5.49541 13.5C5.49541 20.9441 11.643 27 19.1998 27C24.3015 27 28.7583 24.2372 31.1171 20.1529C31.9941 20.2789 32.8301 20.3726 33.6111 20.4295C37.8428 20.7337 40.2114 20.0131 40.8526 18.2226C41.744 15.7389 38.4791 12.9252 34.1019 10.4549ZM19.1998 24.3871C13.1055 24.3871 8.14773 19.5042 8.14773 13.5C8.14773 13.1732 8.16495 12.8505 8.19406 12.531C10.6672 13.8437 13.5405 15.1237 16.6365 16.2769C16.7197 15.3952 17.0362 14.5805 17.525 13.8918C14.2667 12.6764 11.2609 11.3181 8.75782 9.9391C10.2593 5.67983 14.3712 2.61211 19.1994 2.61211C25.2929 2.61211 30.2515 7.49623 30.2515 13.4996C30.2515 14.8426 30.0018 16.1283 29.5488 17.3166C28.6419 17.1469 27.6997 16.9458 26.73 16.7147C26.73 16.7232 26.7308 16.7297 26.7308 16.7386C26.7308 17.6227 26.4934 18.4524 26.081 19.1738C26.8382 19.3543 27.5795 19.5167 28.3036 19.6625C26.3093 22.5141 22.9727 24.3871 19.1998 24.3871Z" fill="#575568"/>
</svg>
