<svg width="25" height="27" viewBox="0 0 25 27" fill="none" xmlns="http://www.w3.org/2000/svg">
<g opacity="0.3">
<path d="M12.5006 15.8883C8.13046 15.8883 4.57336 12.3313 4.57336 7.96111C4.57336 3.59097 8.13046 0 12.5006 0C16.8707 0 20.4278 3.55709 20.4278 7.92724C20.4278 12.2974 16.8707 15.8883 12.5006 15.8883ZM12.5006 2.71017C9.62105 2.71017 7.24965 5.04768 7.24965 7.96111C7.24965 10.8745 9.62105 13.1782 12.5006 13.1782C15.3802 13.1782 17.7515 10.8407 17.7515 7.92724C17.7515 5.01381 15.3802 2.71017 12.5006 2.71017Z" fill="#D8D8D8"/>
<path d="M23.6462 27C22.9009 27 22.2911 26.3902 22.2911 25.6449C22.2911 20.2585 17.921 15.8544 12.5006 15.8544C7.08031 15.8544 2.71017 20.2585 2.71017 25.6449C2.71017 26.3902 2.10038 27 1.35508 27C0.609787 27 0 26.3902 0 25.6449C0 18.7679 5.58972 13.1781 12.4668 13.1781C19.3438 13.1781 24.9335 18.7679 24.9335 25.6449C24.9674 26.3902 24.3915 27 23.6462 27Z" fill="#D8D8D8"/>
</g>
</svg>
