<svg width="19" height="19" viewBox="0 0 19 19" fill="none" xmlns="http://www.w3.org/2000/svg">
<path d="M10.9818 10.9816C12.68 9.28341 12.68 6.53006 10.9818 4.83185C9.28354 3.13363 6.53019 3.13363 4.83197 4.83185C3.13376 6.53006 3.13376 9.28341 4.83197 10.9816C6.53019 12.6798 9.28354 12.6798 10.9818 10.9816ZM11.4745 12.212C9.27804 14.0365 6.0125 13.9192 3.95343 11.8602C1.77001 9.67675 1.77001 6.13673 3.95343 3.95331C6.13685 1.76989 9.67687 1.76989 11.8603 3.95331C13.8531 5.94613 14.0271 9.06905 12.3822 11.2592L14.8849 13.7619C15.141 14.018 15.1422 14.4321 14.8835 14.6907C14.6266 14.9476 14.2077 14.9451 13.9547 14.6921L11.4745 12.212Z" fill="white"/>
</svg>
