<svg xmlns="http://www.w3.org/2000/svg" width="13.064" height="10.605" viewBox="0 0 13.064 10.605"><path d="M11.493,5.286H9.6V5.092a1.571,1.571,0,0,0-1.57-1.57h-3a1.571,1.571,0,0,0-1.57,1.57v.194H1.57A1.571,1.571,0,0,0,0,6.857v5.7a1.571,1.571,0,0,0,1.57,1.57h9.923a1.571,1.571,0,0,0,1.57-1.57v-5.7A1.571,1.571,0,0,0,11.493,5.286ZM6.531,12.5A2.966,2.966,0,1,1,9.5,9.532,2.969,2.969,0,0,1,6.531,12.5ZM8.1,9.532a1.57,1.57,0,1,1-1.57-1.57A1.573,1.573,0,0,1,8.1,9.532Z" transform="translate(0 -3.522)" fill="#63c48c"/></svg>