<svg xmlns="http://www.w3.org/2000/svg" width="18" height="18" viewBox="0 0 18 18"><g transform="translate(-0.268)"><circle cx="9" cy="9" r="9" transform="translate(0.268)" fill="#2d3f7b"/><path d="M11.592,9.885c-.054,0-.108,0-.162,0A3.273,3.273,0,0,1,9.076,8.9,3.382,3.382,0,0,1,8.1,6.506a3.425,3.425,0,0,1,.325-1.461,4.839,4.839,0,0,1,.252-.434A.073.073,0,0,0,8.607,4.5a3.591,3.591,0,0,0,.548,7.129,3.5,3.5,0,0,0,2.69-1.264,3.391,3.391,0,0,0,.3-.4.075.075,0,0,0-.076-.113A3.171,3.171,0,0,1,11.592,9.885Z" transform="translate(-0.078 0.756)" fill="#fff"/></g></svg>