<svg xmlns="http://www.w3.org/2000/svg" width="14.625" height="14.625" viewBox="0 0 14.625 14.625"><path d="M10.688,3.375A7.313,7.313,0,1,0,18,10.688,7.311,7.311,0,0,0,10.688,3.375Zm-.151,10.688a.725.725,0,1,1,.756-.724A.734.734,0,0,1,10.536,14.063Zm1.413-3.407c-.612.355-.819.615-.819,1.065V12H9.911L9.9,11.7a1.464,1.464,0,0,1,.83-1.547c.594-.355.844-.58.844-1.016a.853.853,0,0,0-.946-.756.889.889,0,0,0-.942.865H8.438a2.009,2.009,0,0,1,2.275-1.934c1.318,0,2.225.731,2.225,1.782A1.721,1.721,0,0,1,11.95,10.656Z" transform="translate(-3.375 -3.375)" fill="#63c48c"/></svg>