<svg xmlns="http://www.w3.org/2000/svg" width="22" height="22" viewBox="0 0 22 22"><g transform="translate(-414 -739.709)"><g transform="translate(414 739.709)" fill="#1977f3" stroke="#fff" stroke-width="2"><circle cx="11" cy="11" r="11" stroke="none"/><circle cx="11" cy="11" r="10" fill="none"/></g><path d="M22.133,7.953a.758.758,0,0,0-1.445.2A2.941,2.941,0,0,1,20.4,9.3a1.362,1.362,0,0,1-.862.5,3.506,3.506,0,0,0-1.317.633v4.717a4.686,4.686,0,0,0,1.4.26h2.441a1.072,1.072,0,0,0,1.071-1.071.433.433,0,0,0-.025-.142.923.923,0,0,0,.608-.867.572.572,0,0,0-.139-.378.937.937,0,0,0,.447-.8.594.594,0,0,0-.042-.218.773.773,0,0,0,.7-.7.761.761,0,0,0-.22-.589.75.75,0,0,0-.533-.222H21.776a5.363,5.363,0,0,0,.464-1.537A1.834,1.834,0,0,0,22.133,7.953Z" transform="translate(404.709 739.254)" fill="#fff"/><path d="M5.175,27.488H6.8a.174.174,0,0,0,.176-.176V22.327a.175.175,0,0,0-.176-.176H5.175A.176.176,0,0,0,5,22.327v4.985A.175.175,0,0,0,5.175,27.488Z" transform="translate(415.605 727.177)" fill="#fff"/></g></svg>