<svg xmlns="http://www.w3.org/2000/svg" width="22" height="22" viewBox="0 0 22 22"><g transform="translate(130.732 -764.709)"><g transform="translate(-130.732 764.709)" fill="#f31954" stroke="#fff" stroke-width="2"><circle cx="11" cy="11" r="11" stroke="none"/><circle cx="11" cy="11" r="10" fill="none"/></g><g transform="translate(-124.28 772.288)"><g transform="translate(0 0)"><path d="M6.824,35.514h0a2.677,2.677,0,0,0-2.062.952A2.64,2.64,0,0,0,2.7,35.514a2.7,2.7,0,0,0-2.7,2.7c0,2.556,4.461,5.052,4.642,5.148a.217.217,0,0,0,.241,0c.181-.1,4.642-2.556,4.642-5.148A2.7,2.7,0,0,0,6.824,35.514Z" transform="translate(0 -35.514)" fill="#fff"/></g></g></g></svg>