<svg xmlns="http://www.w3.org/2000/svg" width="17.642" height="20.215" viewBox="0 0 17.642 20.215"><g transform="translate(0)"><g transform="translate(0)"><path d="M33.167,24.914a6.617,6.617,0,0,0-4.962,6.407v4.41a.736.736,0,0,1-.734.736,1.47,1.47,0,1,0,0,2.94H42.168a1.47,1.47,0,1,0,0-2.94.733.733,0,0,1-.734-.736v-4.41a6.618,6.618,0,0,0-4.962-6.407v-.759a1.654,1.654,0,1,0-3.308,0Zm-.919,15.229h5.146a2.573,2.573,0,0,1-5.146,0Z" transform="translate(-26 -22.5)" fill="#2d3f7b" fill-rule="evenodd"/></g></g></svg>