<svg xmlns="http://www.w3.org/2000/svg" width="37" height="37" viewBox="0 0 37 37"><g transform="translate(-1197 135)"><circle cx="18.5" cy="18.5" r="18.5" transform="translate(1197 -135)" fill="#2d3f7b"/><path d="M12.417,20.034a5.984,5.984,0,0,0,3.9-1.44l1.97,1.97a.606.606,0,1,0,.849-.864l-1.97-1.985a5.939,5.939,0,0,0,1.273-3.7,6.017,6.017,0,1,0-6.017,6.017Zm0-10.821a4.8,4.8,0,1,1-4.8,4.8A4.806,4.806,0,0,1,12.417,9.212Z" transform="translate(1202.644 -130.873)" fill="#fff" stroke="#fff" stroke-width="1"/></g></svg>