<svg xmlns="http://www.w3.org/2000/svg" width="12.002" height="12.537" viewBox="0 0 12.002 12.537"><path d="M13.159,8.344l-1.077-.622a4.869,4.869,0,0,0,0-1.774l1.077-.622a.305.305,0,0,0,.139-.354,6.3,6.3,0,0,0-1.383-2.391.3.3,0,0,0-.374-.058l-1.077.622a4.77,4.77,0,0,0-1.537-.887V1.017a.3.3,0,0,0-.238-.3,6.354,6.354,0,0,0-2.76,0,.3.3,0,0,0-.238.3V2.26a4.921,4.921,0,0,0-1.537.887L3.082,2.526a.3.3,0,0,0-.374.058A6.257,6.257,0,0,0,1.325,4.975a.3.3,0,0,0,.139.354l1.077.622a4.869,4.869,0,0,0,0,1.774l-1.077.622a.305.305,0,0,0-.139.354,6.3,6.3,0,0,0,1.383,2.391.3.3,0,0,0,.374.058l1.077-.622a4.77,4.77,0,0,0,1.537.887v1.244a.3.3,0,0,0,.238.3,6.354,6.354,0,0,0,2.76,0,.3.3,0,0,0,.238-.3V11.415a4.921,4.921,0,0,0,1.537-.887l1.077.622a.3.3,0,0,0,.374-.058A6.257,6.257,0,0,0,13.3,8.7a.312.312,0,0,0-.142-.356ZM7.31,8.857A2.022,2.022,0,1,1,9.332,6.835,2.025,2.025,0,0,1,7.31,8.857Z" transform="translate(-1.311 -0.569)" fill="#1977f3"/></svg>