<svg xmlns="http://www.w3.org/2000/svg" width="20" height="20" viewBox="0 0 20 20"><g transform="translate(-0.436 -0.436)"><circle cx="10" cy="10" r="10" transform="translate(0.436 0.436)" fill="#ffd54f"/><g transform="translate(4.251 6.802)"><path d="M8.614,10.763a.638.638,0,0,1-.638-.638.85.85,0,1,0-1.7,0,.638.638,0,0,1-1.275,0,2.126,2.126,0,1,1,4.251,0A.638.638,0,0,1,8.614,10.763Z" transform="translate(-5 -8)" fill="#6d4c41"/><path d="M17.614,10.763a.638.638,0,0,1-.638-.638.85.85,0,1,0-1.7,0,.638.638,0,0,1-1.275,0,2.126,2.126,0,1,1,4.251,0A.638.638,0,0,1,17.614,10.763Z" transform="translate(-6.348 -8)" fill="#6d4c41"/><path d="M11.1,17.45a6.9,6.9,0,0,1-4.914-2.036.638.638,0,0,1,.9-.9,5.674,5.674,0,0,0,8.025,0,.638.638,0,1,1,.9.9A6.907,6.907,0,0,1,11.1,17.45Z" transform="translate(-5.15 -8.947)" fill="#6d4c41"/></g></g></svg>