<svg xmlns="http://www.w3.org/2000/svg" width="17.327" height="11.154" viewBox="0 0 17.327 11.154"><g transform="translate(5.875 2.788)"><g transform="translate(0 0)"><path d="M159.2,156.416a2.788,2.788,0,1,0,2.788,2.788A2.79,2.79,0,0,0,159.2,156.416Zm-.212,1.962a.64.64,0,0,0-.635.635h-.923a1.576,1.576,0,0,1,1.558-1.558Z" transform="translate(-156.416 -156.416)" fill="#1977f3"/></g></g><g transform="translate(0)"><g transform="translate(0 0)"><path d="M17.125,87.176c-.942-1.173-4.308-5-8.461-5S1.144,86,.2,87.176a.925.925,0,0,0,0,1.154c.942,1.173,4.308,5,8.461,5s7.519-3.827,8.461-5A.925.925,0,0,0,17.125,87.176ZM8.663,91.791A4.038,4.038,0,1,1,12.7,87.753,4.038,4.038,0,0,1,8.663,91.791Z" transform="translate(0 -82.176)" fill="#1977f3"/></g></g></svg>